<svg width="114" height="114" viewBox="0 0 114 114" fill="none" xmlns="http://www.w3.org/2000/svg">
<path d="M57 114C88.4802 114 114 88.4802 114 57C114 25.5198 88.4802 0 57 0C25.5198 0 0 25.5198 0 57C0 88.4802 25.5198 114 57 114Z" fill="#F2F2F2"/>
<path d="M57 15.0566C58.7819 15.0566 60.2264 13.6121 60.2264 11.8302C60.2264 10.0483 58.7819 8.60376 57 8.60376C55.2181 8.60376 53.7736 10.0483 53.7736 11.8302C53.7736 13.6121 55.2181 15.0566 57 15.0566Z" fill="black" fill-opacity="0.1"/>
<path d="M11.8302 60.2264C13.6121 60.2264 15.0566 58.7819 15.0566 57C15.0566 55.2181 13.6121 53.7736 11.8302 53.7736C10.0483 53.7736 8.60376 55.2181 8.60376 57C8.60376 58.7819 10.0483 60.2264 11.8302 60.2264Z" fill="black" fill-opacity="0.1"/>
<path d="M102.17 60.2264C103.952 60.2264 105.396 58.7819 105.396 57C105.396 55.2181 103.952 53.7736 102.17 53.7736C100.388 53.7736 98.9434 55.2181 98.9434 57C98.9434 58.7819 100.388 60.2264 102.17 60.2264Z" fill="black" fill-opacity="0.1"/>
<path d="M57 105.396C58.7819 105.396 60.2264 103.952 60.2264 102.17C60.2264 100.388 58.7819 98.9434 57 98.9434C55.2181 98.9434 53.7736 100.388 53.7736 102.17C53.7736 103.952 55.2181 105.396 57 105.396Z" fill="black" fill-opacity="0.1"/>
<path fill-rule="evenodd" clip-rule="evenodd" d="M57.0001 18.283L59.151 55.9245H54.8491L57.0001 18.283Z" fill="#AFB9C5"/>
<path fill-rule="evenodd" clip-rule="evenodd" d="M76.0342 76.0343L56.2619 59.3038L59.3038 56.2619L76.0342 76.0343Z" fill="#AFB9C5"/>
<path d="M57 61.3019C59.3759 61.3019 61.3019 59.3759 61.3019 57C61.3019 54.6241 59.3759 52.6981 57 52.6981C54.6241 52.6981 52.6981 54.6241 52.6981 57C52.6981 59.3759 54.6241 61.3019 57 61.3019Z" fill="#C5CFD6"/>
</svg>
