<svg width="191" height="242" viewBox="0 0 191 242" fill="none" xmlns="http://www.w3.org/2000/svg">
<g style="mix-blend-mode:multiply">
<path fill-rule="evenodd" clip-rule="evenodd" d="M92.6716 43.5092C90.2562 40.6654 88.6214 37.1801 88.8945 33.2749C89.6816 22.0226 105.297 24.498 108.335 30.1771C111.373 35.8563 111.012 50.2619 107.086 51.277C105.52 51.6818 102.185 50.6902 98.7906 48.6379L100.921 63.7575H88.3406L92.6716 43.5092Z" fill="#B28B67"/>
<mask id="mask0_5_111" style="mask-type:alpha" maskUnits="userSpaceOnUse" x="79" y="23" width="31" height="57">
<path d="M106.669 28.2365C106.949 28.331 106.669 27.1216 105.999 26.6793C103.944 25.323 97.8256 23.3155 93.6421 24.1867C90.8395 24.7702 87.3442 26.235 85.1057 28.1023C83.0877 29.7856 81.2516 32.7532 80.5371 35.3604C79.7869 38.098 79.5033 41.9071 80.5371 44.2955C81.7682 47.14 86.1284 50.2055 86.2438 50.6127C86.3754 51.0773 85.86 52.8923 85.4829 54.8048C85.1057 56.7174 85.2774 61.5869 85.4829 62.3812C85.8113 63.6503 87.5724 64.2744 88.3405 64.3662C92.5866 64.8737 95.6646 70.1611 96.9456 71.5138C102.648 77.256 106.627 79.7532 108.884 79.0055C109.478 78.8087 108.588 71.6738 107.994 68.6157C107.4 65.5576 101.574 60.1002 101.201 58.3018C100.981 57.2423 100.944 55.3981 100.921 55.314C100.372 51.5145 100.466 51.2056 99.6648 49.6573C98.8633 48.1091 98.2419 48.0182 98.4346 47.5672C99.3757 45.3635 102.403 38.621 103.089 36.4163C103.908 33.7885 103.521 34.6516 104.365 32.0328C104.739 30.8732 105.214 27.746 106.669 28.2365Z" fill="white"/>
</mask>
<g mask="url(#mask0_5_111)">
<path d="M106.669 28.2365C106.949 28.331 106.669 27.1216 105.999 26.6793C103.944 25.323 97.8256 23.3155 93.6421 24.1867C90.8395 24.7702 87.3442 26.235 85.1057 28.1023C83.0877 29.7856 81.2516 32.7532 80.5371 35.3604C79.7869 38.098 79.5033 41.9071 80.5371 44.2955C81.7682 47.14 86.1284 50.2055 86.2438 50.6127C86.3754 51.0773 85.86 52.8923 85.4829 54.8048C85.1057 56.7174 85.2774 61.5869 85.4829 62.3812C85.8113 63.6503 87.5724 64.2744 88.3405 64.3662C92.5866 64.8737 95.6646 70.1611 96.9456 71.5138C102.648 77.256 106.627 79.7532 108.884 79.0055C109.478 78.8087 108.588 71.6738 107.994 68.6157C107.4 65.5576 101.574 60.1002 101.201 58.3018C100.981 57.2423 100.944 55.3981 100.921 55.314C100.372 51.5145 100.466 51.2056 99.6648 49.6573C98.8633 48.1091 98.2419 48.0182 98.4346 47.5672C99.3757 45.3635 102.403 38.621 103.089 36.4163C103.908 33.7885 103.521 34.6516 104.365 32.0328C104.739 30.8732 105.214 27.746 106.669 28.2365Z" fill="#89C5CC"/>
<path fill-rule="evenodd" clip-rule="evenodd" d="M95.8449 28.5294C94.9254 31.4559 94.7276 33.0181 94.9254 37.0168H94.4743C93.6317 33.2432 94.3816 29.6908 95.278 28.5294H95.8449ZM83.5086 36.082C85.2222 40.2526 86.0035 42.7155 90.7886 46.0904L90.4191 46.3499C85.6688 43.6495 84.2855 40.4284 83.1482 36.2558L83.5086 36.082ZM90.5492 31.8378C91.3275 37.7576 91.5548 41.139 95.6093 47.6144L95.1779 47.7467C91.0051 42.1086 90.3437 37.5068 90.1465 31.8703L90.5492 31.8378ZM86.0705 49.4224L86.4396 48.9724C91.4757 50.5547 90.9147 53.8213 97.2577 57.1294L96.7277 57.4516C91.1735 55.1524 89.8752 50.2211 86.0705 49.4224Z" fill="black" fill-opacity="0.2"/>
</g>
<path fill-rule="evenodd" clip-rule="evenodd" d="M78.2334 107.268C79.1786 120.208 140.069 158.304 140.424 159.373C140.582 159.848 134.264 174.865 121.471 204.423L126.794 206.498C146.416 175.193 155.723 157.873 154.716 154.537C153.273 149.761 137.525 134.051 107.472 107.406L78.2334 107.268Z" fill="#B28B67"/>
<path fill-rule="evenodd" clip-rule="evenodd" d="M122.872 197.748L131.562 200.921C149.886 180.182 157.069 163.071 155.759 154.353C154.886 148.54 139.193 132.856 108.679 107.3L77.6103 107.3C78.6704 137.266 135.108 159.487 135.863 160.763C136.617 162.04 129.189 174.547 122.872 197.748Z" fill="#2F3676"/>
<path fill-rule="evenodd" clip-rule="evenodd" d="M119.508 203.401C118.422 204.673 117.747 205.675 117.481 206.407C117.159 207.297 116.836 208.65 116.513 210.465C117.544 210.842 126.807 214.227 144.303 220.62C145.892 218.492 145.943 217.049 144.456 216.29C142.969 215.531 141.739 214.886 140.766 214.357L129.94 203.869C129.732 203.668 129.4 203.673 129.199 203.881C129.196 203.885 129.192 203.889 129.189 203.892L127.627 205.606C125.943 205.753 124.651 205.662 123.75 205.333C123.018 205.065 122.115 204.4 121.041 203.337L121.041 203.337C120.628 202.929 119.965 202.933 119.558 203.346C119.541 203.364 119.524 203.382 119.508 203.401Z" fill="#E4E4E4"/>
<path fill-rule="evenodd" clip-rule="evenodd" d="M85.2345 107.268L58.1097 172.586L31.4502 227.806H37.74L106.555 107.268H85.2345Z" fill="#997659"/>
<path fill-rule="evenodd" clip-rule="evenodd" d="M31.074 225.257C30.4876 226.828 30.1943 228.002 30.1943 228.782C30.1943 229.73 30.3518 231.114 30.6668 232.933C31.7633 232.933 41.6185 232.933 60.2322 232.933C61.0005 230.385 60.5569 229.01 58.9016 228.807C57.2463 228.603 55.8712 228.42 54.7763 228.256L41.0346 222.111C40.7702 221.993 40.4603 222.112 40.3424 222.378C40.3404 222.382 40.3384 222.387 40.3366 222.391L39.4533 224.54C37.9209 225.258 36.6756 225.616 35.7176 225.616C34.9392 225.616 33.8642 225.301 32.4926 224.67L32.4926 224.67C31.9663 224.428 31.344 224.66 31.1027 225.188C31.0923 225.211 31.0828 225.234 31.074 225.257Z" fill="#E4E4E4"/>
<path fill-rule="evenodd" clip-rule="evenodd" d="M33.8577 216.335L47.8338 218.964C58.64 203.028 103.865 137.686 108.823 107.268H77.7092C61.1504 129.257 44.1583 200.136 33.8577 216.335Z" fill="#5C63AB"/>
<path fill-rule="evenodd" clip-rule="evenodd" d="M128.971 53.3638L148.84 47.3811C152.546 44.4869 156.043 42.3708 159.328 41.0328C160.284 40.8524 161.866 40.9572 159.889 43.2066C157.912 45.4561 155.933 47.9114 156.498 48.8546C157.062 49.7978 159.119 49.0868 159.714 50.5809C160.111 51.5769 156.704 52.2904 149.492 52.7211L134.044 61.8405L128.971 53.3638ZM127.215 88.5011L143.936 100.817C148.471 102.045 152.26 103.572 155.303 105.399C156.022 106.056 156.89 107.386 153.909 107.156C150.929 106.926 147.783 106.819 147.372 107.838C146.96 108.858 148.764 110.078 147.933 111.454C147.379 112.371 144.76 110.071 140.077 104.553L123.519 97.6662L127.215 88.5011Z" fill="#B28B67"/>
<path fill-rule="evenodd" clip-rule="evenodd" d="M101.244 55.3334C110.349 72.3636 123.516 85.4185 142.605 98.9895L135.377 107.164C114.064 99.2193 102.815 94.4258 97.2915 78.3358C95.9051 74.2975 94.9361 61.4242 94.1048 54.6509L101.244 55.3334Z" fill="#2026A2"/>
<path fill-rule="evenodd" clip-rule="evenodd" d="M75.7886 112.073H116.151C107.009 84.104 102.338 64.9076 102.14 54.4841C102.13 53.9527 101.151 53.0163 100.718 53.1389C97.5528 54.0357 94.1653 53.7004 90.556 52.133C80.9872 67.5694 77.6782 86.5748 75.7886 112.073Z" fill="#F2F2F2"/>
<path fill-rule="evenodd" clip-rule="evenodd" d="M94.0003 52.1579C105.57 52.253 124.341 54.3722 145.99 47.4009L148.127 58.1131C131.765 68.6683 115.198 76.8448 100.68 75.6837C106.985 102.807 106.694 125.011 92.7763 125.011C86.13 125.011 78.9562 125.011 71.2549 125.011C67.8368 101.97 76.8202 70.0224 85.1485 53.9084C85.4665 53.2931 86.1437 52.133 87.7386 52.133C89.1282 52.133 91.2127 52.133 93.9921 52.133C93.9948 52.1413 93.9976 52.1496 94.0003 52.1579Z" fill="#1F28CF"/>
</g>
</svg>
