<svg width="279" height="582" viewBox="0 0 279 582" fill="none" xmlns="http://www.w3.org/2000/svg">
<g style="mix-blend-mode:exclusion" clip-path="url(#clip0_5_147)">
<path opacity="0.2" fill-rule="evenodd" clip-rule="evenodd" d="M210.216 11.4457C213.727 9.70459 218.408 11.7239 216.456 16.3266C214.364 21.2555 206.631 21.3164 202.263 21.2187C202.7 21.1958 204.108 16.6759 204.59 15.9929C206.011 13.9782 208.057 12.518 210.216 11.4457ZM169.787 101.253C168.547 102.313 169.686 101.352 169.787 101.253V101.253ZM214.297 34.3297C216.397 35.9187 216.495 38.726 214.779 40.6272C212.734 42.8905 209.004 42.81 206.219 42.5909C204.96 42.4917 198.234 41.9618 199.829 40.8709C199.706 40.9169 199.45 41.0283 199.176 41.1798C199.028 41.7136 198.873 42.2456 198.711 42.7752C198.751 42.7981 198.785 42.8226 198.827 42.8454C198.781 42.8255 198.749 42.8041 198.709 42.7839C197.088 48.0772 194.784 53.1177 191.766 57.8337C192.895 57.3932 194.063 57.0597 195.248 56.9108C198.757 56.4696 206.137 59.1663 202.21 63.7952C198.444 68.2327 192.588 63.477 188.317 62.8229C184.171 68.5513 179.6 74.0414 174.811 79.3483C175.104 79.4391 175.361 79.6285 175.509 79.9236C177.429 78.9577 179.431 77.5764 181.209 77.2018C183.774 76.662 189.033 76.3328 190.97 78.6053C193.353 81.3997 190.796 83.6717 187.979 84.2092C183.894 84.9889 178.549 83.0153 174.619 81.682C174.17 81.7609 173.679 81.6309 173.386 81.275C173.299 81.2468 173.212 81.2191 173.128 81.1923C168.277 86.4732 163.242 91.5801 158.237 96.575C158.29 96.5723 158.343 96.569 158.399 96.5661C159.704 95.7178 161.104 95.0217 162.621 94.6566C166.132 93.8077 170.261 93.8014 173.108 96.315C175.944 98.8177 176.946 103.197 174.01 106.01C168.132 111.642 159.483 98.8125 156.52 98.2783C151.433 103.301 146.056 107.994 140.593 112.593C141.213 112.405 141.849 112.268 142.507 112.206C147.861 111.695 160.424 118.189 153.85 124.588C148.122 130.165 141.5 119.441 136.888 115.692C131.74 119.978 126.565 124.234 121.535 128.657C124.278 127.934 126.928 127.827 129.867 128.705C132.908 129.615 137.815 131.887 135.89 135.955C133.933 140.093 128.04 138.213 124.97 136.902C123.296 136.187 119.941 133.771 116.994 132.754C108.967 140.26 102.013 148.526 96.7474 158.262C93.4598 164.34 90.964 170.834 89.2062 177.508C88.0842 181.768 85.8742 188.923 86.313 194.467C84.2133 183.371 88.027 170.042 92.1331 160.121C95.9084 150.999 101.556 142.989 108.169 135.779C106.513 130.839 92.5552 123.72 100.904 119.125C105.337 116.696 109.875 120.721 110.841 124.985C111.505 127.916 110.49 131.599 109.412 134.445C111.493 132.247 113.655 130.119 115.884 128.063C118.963 125.22 122.117 122.459 125.3 119.734C120.059 114.858 115.104 100.913 122.136 98.6286C132.519 95.2646 127.511 114.292 126.785 117.858C126.579 117.87 126.419 117.808 126.301 117.676C126.359 118.003 126.427 118.352 126.509 118.704C132.602 113.515 138.785 108.427 144.765 103.114C144.227 102.72 143.371 101.214 142.699 100.413C141.181 98.606 139.729 96.7188 138.669 94.6051C136.993 91.2648 135.378 85.9364 139.825 83.9689C144.662 81.8253 146.956 87.8516 146.988 91.4473C147.01 93.9342 146.325 96.2969 145.967 98.7346C145.856 99.4949 146.283 102.921 145.238 101.448C145.287 101.991 145.294 102.385 145.269 102.664C146.343 101.705 147.408 100.736 148.467 99.7603C148.418 99.6371 148.381 99.5028 148.373 99.3471C148.317 98.2751 149.406 97.8617 150.17 98.1753C151.567 96.8606 152.95 95.5294 154.309 94.1717C157.188 91.2954 160.109 88.3371 163.01 85.3158C162.381 84.7809 162.632 84.0396 162.044 83.4717C161.457 82.9051 160.3 82.5922 159.61 82.0659C157.873 80.7416 156.434 78.8116 155.393 76.912C153.675 73.7733 151.455 67.1882 156.481 65.6893C161.66 64.1418 164.286 70.4804 164.617 74.444C164.681 75.2119 164.097 82.1313 163.652 84.644C169.019 79.029 174.299 73.2035 179.083 67.2769C177.633 67.2643 173.525 64.3253 172.695 63.5231C170.669 61.5667 167.449 57.2429 171.004 54.9522C174.165 52.9205 178.058 55.8589 179.408 58.716C179.63 59.1865 180.411 63.5659 180.471 65.531C182.451 63.0178 184.339 60.4898 186.097 57.9538C187.269 56.2677 188.364 54.5372 189.389 52.7699C189.142 52.6316 188.911 52.3905 188.692 52.0906C183.422 51.2074 176.707 43.0673 182.899 40.2307C185.847 38.882 189.042 41.6614 190.484 43.9376C190.78 44.4033 191.258 46.745 191.647 48.5921C194.596 42.7376 196.85 36.54 198.566 30.1858C198.108 30.0732 197.719 29.7264 197.668 29.1294C195.11 27.6861 193.091 26.4842 191.306 23.7071C190.197 21.9821 188.201 18.0409 191.462 17.0815C195.705 15.8333 198.367 22.2503 198.713 25.4115C198.753 25.7784 198.751 26.8457 198.737 27.8238C198.884 27.8038 199.033 27.806 199.179 27.8314C200.155 23.8969 200.935 19.9119 201.556 15.9202C199.24 15.1832 198.846 3.13801 200.389 1.4221C203.838 -2.42001 206.266 3.12634 206.081 6.05844C205.862 9.51569 204.278 12.6613 202.393 15.4533C202.191 15.7489 202.249 15.7345 202.197 15.3228C202.168 15.5264 202.099 15.6766 201.997 15.7854C202.093 17.6052 202.282 19.4682 202.19 21.0786C201.927 25.6902 201.382 30.3288 200.592 34.8813C200.4 35.9885 200.18 37.0868 199.933 38.1755C201.796 36.604 204.306 35.2073 205.288 34.7705C207.838 33.6378 211.766 32.4142 214.297 34.3297ZM85.896 194.029C86.0191 195.511 86.3845 196.863 87.104 197.971C86.5758 196.704 86.1797 195.386 85.896 194.029Z" fill="#C1DEE2"/>
<g opacity="0.5">
<path opacity="0.5" fill-rule="evenodd" clip-rule="evenodd" d="M178.223 162.445C182.425 156.453 190.224 141.235 196.138 139.094C199.948 137.715 198.837 151.98 198.884 154.7C199.067 165.224 198.043 175.681 196.778 186.116C194.498 204.937 187.045 221.697 176.822 237.715C171.562 245.957 165.391 254.3 156.845 259.442C152.912 261.811 148.179 262.207 144.294 264.248C139.769 266.623 142.233 264.703 140.194 269.417C137.363 275.963 136.457 284.408 135.147 291.392C129.132 323.455 114.568 492.945 117.093 525.558C117.317 528.449 113.287 529.14 113.085 525.611C112.016 506.9 121.27 377.322 125.94 334.947C130.609 292.571 135.334 255.134 140.071 240.474C145.819 222.687 156.199 201.298 164.84 184.711C168.854 177.006 173.229 169.565 178.223 162.445Z" fill="#69A1AC"/>
<path opacity="0.5" fill-rule="evenodd" clip-rule="evenodd" d="M209.414 370.278C220.349 362.25 232.186 377.401 222.29 385.43C216.82 389.868 211.101 388.29 207.882 384.591C205.792 387.139 203.836 389.803 201.956 392.052C196.229 398.908 190.817 405.928 185.644 413.111C174.898 428.035 165.689 443.801 156.06 459.278C146.558 474.554 137.132 489.908 128.519 505.571C121.223 518.841 111.498 534.452 109 549C112.79 518.146 127.172 488.49 144.298 461.291C161.285 434.314 180.779 404.853 207.081 383.564C204.404 379.627 204.33 374.008 209.414 370.278Z" fill="#C1DEE2"/>
<path opacity="0.5" fill-rule="evenodd" clip-rule="evenodd" d="M1.9132 295.031C8.03244 296.227 18.0312 310.07 23.0753 315.344C29.0699 321.612 34.5084 328.292 39.6349 335.292C50.6711 350.358 60.5411 366.376 68.9339 383.08C82.6164 410.311 93.5779 438.265 101.533 467.918C106.403 486.069 109.556 504.883 111.424 523.565C111.777 527.089 115.471 554.253 110.148 554.985C105.361 555.644 106.84 534.359 106.609 531.463C103.998 498.798 96.1772 467.015 85.2985 436.226C82.929 429.519 80.7276 421.304 76.9381 415.269C74.2092 410.921 76.9186 412.437 72.1228 410.792C68.0049 409.378 63.3131 409.724 59.0963 407.993C49.9356 404.237 42.6006 396.944 36.1709 389.608C23.6758 375.351 13.774 359.928 8.61264 341.66C5.74947 331.532 3.11836 321.344 1.65826 310.902C1.28056 308.203 -2.02816 294.26 1.9132 295.031Z" fill="#69A1AC"/>
<path opacity="0.5" fill-rule="evenodd" clip-rule="evenodd" d="M26.0614 64.716C49.1113 104.69 68.0528 148.601 80.2834 193.076C87.6937 220.023 92.876 247.675 98.025 275.126C105.997 317.632 113.538 360.134 115.683 403.395C117.841 446.906 122.108 497.092 107.861 539C114.978 496.452 108.202 451.162 107.002 408.35C106.429 387.912 104.768 367.674 102.588 347.355C100.473 327.645 97.0184 308.029 93.8009 288.474C92.2336 278.95 90.5876 269.441 88.9118 259.937C88.4115 257.101 88.2002 248.687 86.4014 246.75C84.5911 244.8 75.3543 244.005 72.4544 242.574C66.6149 239.693 61.1221 235.6 56.2609 231.275C46.9418 222.984 38.8347 212.151 32.4359 201.472C17.6307 176.764 11.7116 146.61 12.0108 117.994C12.0682 112.438 21.0034 52.61 17.4149 51.7861C17.631 51.533 17.8353 51.2718 18.028 51C20.7448 55.5488 23.4108 60.1284 26.0614 64.716Z" fill="#89C5CC"/>
<path opacity="0.5" fill-rule="evenodd" clip-rule="evenodd" d="M274.846 208.887C275.202 208.374 277.517 204.807 276.351 205.035C278.724 204.57 273.087 208.969 279 206.27C276.192 208.922 277.813 212.366 277.85 215.935C277.911 221.73 276.942 227.476 275.851 233.146C274.126 242.109 271.557 250.823 267.828 259.159C259.701 277.326 245.901 294.814 229.518 306.172C221.43 311.779 213.504 313.689 204.28 316.27C198.453 317.901 197.991 320.915 194.898 326.569C188.46 338.345 182.136 350.078 176.457 362.251C169.677 376.788 163.095 391.34 156.886 406.132C135.969 455.957 118.945 507.578 110.005 561C109.786 529.519 117.069 497.095 126.255 467.088C132.947 445.226 141.658 424.151 150.95 403.289C153.201 398.236 156.613 391.735 157.57 386.155C158.239 382.245 156.192 378.486 155.255 374.367C151.601 358.33 151.863 340.363 155.071 324.24C158.609 306.461 168.839 298.209 186.145 295.691C192.474 294.769 200.519 295.107 206.322 292.408C212.645 289.47 215.253 279.81 218.849 273.61C228.506 256.953 239.98 240.979 253.155 226.945C256.803 223.059 260.726 219.473 264.888 216.15C267.513 214.053 273.058 211.47 274.846 208.887Z" fill="#89C5CC"/>
<path opacity="0.5" fill-rule="evenodd" clip-rule="evenodd" d="M80.7914 527H142.209C144.97 527 147.209 529.239 147.209 532C147.209 532.244 147.191 532.488 147.155 532.729L142.408 564.918C140.961 574.73 132.541 582 122.622 582H100.378C90.4592 582 82.039 574.73 80.5919 564.918L75.8449 532.729C75.4421 529.998 77.3301 527.456 80.0619 527.053C80.3035 527.018 80.5473 527 80.7914 527Z" fill="#C1DEE2"/>
</g>
</g>
<defs>
<clipPath id="clip0_5_147">
<rect width="279" height="582" fill="white"/>
</clipPath>
</defs>
</svg>
