<svg width="348" height="328" viewBox="0 0 348 328" fill="none" xmlns="http://www.w3.org/2000/svg">
<g filter="url(#filter0_b_9_179)">
<path fill-rule="evenodd" clip-rule="evenodd" d="M97.5868 31.9608C93.8183 27.5187 91.2676 22.0748 91.6938 15.9748C92.9219 -1.60099 117.286 2.26546 122.025 11.1362C126.764 20.007 126.201 42.5084 120.076 44.0938C117.633 44.7261 112.43 43.1773 107.134 39.9717L110.458 63.5882H90.8295L97.5868 31.9608Z" fill="#B28B67"/>
<path d="M119.426 8.10494C119.863 8.25249 119.426 6.36343 118.38 5.67258C115.174 3.55402 105.628 0.418496 99.1011 1.77916C94.7285 2.69067 89.2751 4.97864 85.7826 7.89525C82.6341 10.5246 79.7693 15.16 78.6545 19.2323C77.484 23.5084 77.0416 29.4582 78.6545 33.1889C80.5754 37.6318 87.3782 42.4202 87.5582 43.0561C87.7635 43.7818 86.9595 46.6169 86.371 49.6043C85.7826 52.5916 86.0504 60.1977 86.371 61.4383C86.8834 63.4207 89.6311 64.3955 90.8296 64.5389C97.4544 65.3317 102.257 73.5904 104.255 75.7034C113.151 84.6726 119.36 88.5732 122.882 87.4053C123.808 87.0979 122.419 75.9532 121.492 71.1765C120.566 66.3998 111.476 57.8756 110.894 55.0664C110.551 53.4116 110.494 50.5309 110.458 50.3995C109.601 44.4647 109.748 43.9823 108.498 41.5639C107.247 39.1456 106.278 39.0036 106.578 38.2992C108.047 34.8571 112.77 24.3254 113.841 20.8816C115.118 16.7771 114.515 18.1253 115.831 14.0347C116.414 12.2234 117.156 7.33885 119.426 8.10494Z" fill="white"/>
<path d="M119.426 8.10494C119.863 8.25249 119.426 6.36343 118.38 5.67258C115.174 3.55402 105.628 0.418496 99.1011 1.77916C94.7285 2.69067 89.2751 4.97864 85.7826 7.89525C82.6341 10.5246 79.7693 15.16 78.6545 19.2323C77.484 23.5084 77.0416 29.4582 78.6545 33.1889C80.5754 37.6318 87.3782 42.4202 87.5582 43.0561C87.7635 43.7818 86.9595 46.6169 86.371 49.6043C85.7826 52.5916 86.0504 60.1977 86.371 61.4383C86.8834 63.4207 89.6311 64.3955 90.8296 64.5389C97.4544 65.3317 102.257 73.5904 104.255 75.7034C113.151 84.6726 119.36 88.5732 122.882 87.4053C123.808 87.0979 122.419 75.9532 121.492 71.1765C120.566 66.3998 111.476 57.8756 110.894 55.0664C110.551 53.4116 110.494 50.5309 110.458 50.3995C109.601 44.4647 109.748 43.9823 108.498 41.5639C107.247 39.1456 106.278 39.0036 106.578 38.2992C108.047 34.8571 112.77 24.3254 113.841 20.8816C115.118 16.7771 114.515 18.1253 115.831 14.0347C116.414 12.2234 117.156 7.33885 119.426 8.10494Z" fill="#89C5CC"/>
<path fill-rule="evenodd" clip-rule="evenodd" d="M102.538 8.56237C101.103 13.1336 100.795 15.5737 101.103 21.8196H100.399C99.0848 15.9253 100.255 10.3765 101.653 8.56237H102.538ZM83.2907 20.3595C85.9642 26.8739 87.1832 30.7208 94.649 35.9924L94.0725 36.3978C86.6611 32.1798 84.5028 27.1484 82.7283 20.6309L83.2907 20.3595ZM94.2755 13.7301C95.4898 22.9767 95.8444 28.2584 102.17 38.3729L101.497 38.5795C94.9868 29.7729 93.9548 22.585 93.6472 13.7809L94.2755 13.7301ZM87.2878 41.197L87.8636 40.4941C95.721 42.9655 94.8458 48.0679 104.742 53.2352L103.915 53.7384C95.2496 50.1471 93.2239 42.4446 87.2878 41.197Z" fill="black" fill-opacity="0.2"/>
<path fill-rule="evenodd" clip-rule="evenodd" d="M75.0604 131.551C76.5351 151.763 171.536 211.268 172.09 212.937C172.337 213.679 162.48 237.135 142.52 283.306L150.825 286.547C181.44 237.649 195.961 210.595 194.388 205.384C192.137 197.925 167.567 173.385 120.678 131.766L75.0604 131.551Z" fill="#B28B67"/>
<path fill-rule="evenodd" clip-rule="evenodd" d="M144.706 272.879L158.264 277.835C186.854 245.442 198.06 218.714 196.017 205.096C194.655 196.018 170.17 171.519 122.561 131.601L74.0881 131.601C75.7421 178.407 163.796 213.115 164.974 215.11C166.152 217.105 154.561 236.64 144.706 272.879Z" fill="#2F3676"/>
<path fill-rule="evenodd" clip-rule="evenodd" d="M139.454 281.707C137.76 283.693 136.707 285.258 136.294 286.4C135.791 287.79 135.288 289.902 134.785 292.736C136.393 293.325 150.847 298.614 178.147 308.604C180.625 305.283 180.704 303.03 178.384 301.844C176.064 300.657 174.145 299.651 172.626 298.823L155.731 282.443C155.406 282.128 154.888 282.136 154.575 282.462C154.569 282.467 154.564 282.473 154.559 282.478L152.123 285.154C149.495 285.382 147.479 285.24 146.074 284.725C144.932 284.308 143.523 283.268 141.846 281.608C141.202 280.971 140.166 280.977 139.533 281.621C139.505 281.649 139.479 281.677 139.454 281.707Z" fill="#E4E4E4"/>
<path fill-rule="evenodd" clip-rule="evenodd" d="M85.9836 131.551L43.6632 233.576L2.06878 319.83H11.8822L119.249 131.551H85.9836Z" fill="#997659"/>
<path fill-rule="evenodd" clip-rule="evenodd" d="M1.48183 315.848C0.566861 318.301 0.109375 320.136 0.109375 321.354C0.109375 322.835 0.355069 324.996 0.846456 327.837C2.55735 327.837 17.9334 327.837 46.9747 327.837C48.1734 323.858 47.4814 321.709 44.8988 321.392C42.3161 321.075 40.1707 320.788 38.4624 320.533L17.0225 310.934C16.61 310.75 16.1264 310.936 15.9425 311.35C15.9394 311.357 15.9363 311.364 15.9334 311.372L14.5552 314.729C12.1644 315.849 10.2216 316.409 8.72679 316.409C7.51233 316.409 5.83513 315.916 3.69522 314.931C2.87402 314.553 1.90313 314.915 1.52668 315.74C1.51045 315.775 1.49549 315.812 1.48183 315.848Z" fill="#E4E4E4"/>
<path fill-rule="evenodd" clip-rule="evenodd" d="M5.82495 301.912L27.6306 306.018C44.4906 281.127 115.051 179.064 122.787 131.551H74.2426C48.4074 165.898 21.8961 276.609 5.82495 301.912Z" fill="#5C63AB"/>
<path fill-rule="evenodd" clip-rule="evenodd" d="M154.222 47.3534L185.221 38.0085C191.004 33.4878 196.459 30.1825 201.585 28.0926C203.076 27.8108 205.545 27.9744 202.46 31.488C199.376 35.0017 196.289 38.8368 197.169 40.3101C198.05 41.7834 201.259 40.6727 202.187 43.0065C202.807 44.5624 197.491 45.6767 186.239 46.3495L162.136 60.5938L154.222 47.3534ZM151.483 102.237L177.571 121.475C184.646 123.392 190.558 125.777 195.305 128.631C196.426 129.657 197.781 131.735 193.131 131.376C188.48 131.017 183.572 130.849 182.931 132.442C182.289 134.035 185.103 135.94 183.806 138.089C182.941 139.522 178.856 135.929 171.549 127.311L145.716 116.553L151.483 102.237Z" fill="#B28B67"/>
<path fill-rule="evenodd" clip-rule="evenodd" d="M110.961 50.4299C125.168 77.0308 145.711 97.4223 175.494 118.62L164.217 131.388C130.964 118.979 113.413 111.492 104.795 86.3592C102.632 80.0515 101.12 59.9436 99.8231 49.3639L110.961 50.4299Z" fill="#2026A2"/>
<path fill-rule="evenodd" clip-rule="evenodd" d="M71.2459 139.057H134.22C119.956 95.3692 112.669 65.3847 112.359 49.1033C112.344 48.2733 110.817 46.8106 110.142 47.0022C105.203 48.4029 99.9175 47.8792 94.2862 45.4309C79.3569 69.5424 74.1941 99.2285 71.2459 139.057Z" fill="#F2F2F2"/>
<path fill-rule="evenodd" clip-rule="evenodd" d="M99.66 45.4698C117.711 45.6183 146.998 48.9285 180.775 38.0394L184.109 54.7717C158.581 71.2587 132.733 84.0303 110.083 82.2167C119.918 124.584 119.465 159.265 97.7503 159.265C87.3807 159.265 76.188 159.265 64.1724 159.265C58.8395 123.275 72.8555 73.3738 85.8494 48.204C86.3456 47.2429 87.402 45.4309 89.8904 45.4309C92.0586 45.4309 95.3108 45.4309 99.6472 45.4309C99.6514 45.4439 99.6557 45.4569 99.66 45.4698Z" fill="#1F28CF"/>
<path d="M281 134C243.997 134 214 104.003 214 67C214 29.9969 243.997 0 281 0C318.003 0 348 29.9969 348 67C348 104.003 318.003 134 281 134Z" fill="#F2F2F2"/>
<path d="M281 17.6981C278.905 17.6981 277.208 16.0002 277.208 13.9057C277.208 11.8111 278.905 10.1132 281 10.1132C283.094 10.1132 284.792 11.8111 284.792 13.9057C284.792 16.0002 283.094 17.6981 281 17.6981Z" fill="black" fill-opacity="0.1"/>
<path d="M334.094 70.7925C332 70.7925 330.302 69.0945 330.302 67C330.302 64.9055 332 63.2075 334.094 63.2075C336.189 63.2075 337.887 64.9055 337.887 67C337.887 69.0945 336.189 70.7925 334.094 70.7925Z" fill="black" fill-opacity="0.1"/>
<path d="M227.906 70.7925C225.811 70.7925 224.113 69.0945 224.113 67C224.113 64.9055 225.811 63.2075 227.906 63.2075C230 63.2075 231.698 64.9055 231.698 67C231.698 69.0945 230 70.7925 227.906 70.7925Z" fill="black" fill-opacity="0.1"/>
<path d="M281 123.887C278.905 123.887 277.208 122.189 277.208 120.094C277.208 118 278.905 116.302 281 116.302C283.094 116.302 284.792 118 284.792 120.094C284.792 122.189 283.094 123.887 281 123.887Z" fill="black" fill-opacity="0.1"/>
<path fill-rule="evenodd" clip-rule="evenodd" d="M281 21.4906L278.472 65.7358H283.528L281 21.4906Z" fill="#AFB9C5"/>
<path fill-rule="evenodd" clip-rule="evenodd" d="M258.626 89.3736L281.868 69.708L278.292 66.1324L258.626 89.3736Z" fill="#AFB9C5"/>
<path d="M281 72.0566C278.207 72.0566 275.943 69.7927 275.943 67C275.943 64.2073 278.207 61.9434 281 61.9434C283.793 61.9434 286.057 64.2073 286.057 67C286.057 69.7927 283.793 72.0566 281 72.0566Z" fill="#C5CFD6"/>
</g>
<defs>
<filter id="filter0_b_9_179" x="-3.89062" y="-4" width="355.891" height="335.837" filterUnits="userSpaceOnUse" color-interpolation-filters="sRGB">
<feFlood flood-opacity="0" result="BackgroundImageFix"/>
<feGaussianBlur in="BackgroundImage" stdDeviation="2"/>
<feComposite in2="SourceAlpha" operator="in" result="effect1_backgroundBlur_9_179"/>
<feBlend mode="normal" in="SourceGraphic" in2="effect1_backgroundBlur_9_179" result="shape"/>
</filter>
</defs>
</svg>
